<mxfile host="app.diagrams.net" agent="Mozilla/5.0 (Windows NT 10.0; Win64; x64) AppleWebKit/537.36 (KHTML, like Gecko) Chrome/137.0.0.0 Safari/537.36" version="27.1.6">
  <diagram name="Page-1" id="0DTJPju1t_jOSNQjmSPn">
    <mxGraphModel dx="1042" dy="622" grid="1" gridSize="10" guides="1" tooltips="1" connect="1" arrows="1" fold="1" page="1" pageScale="1" pageWidth="1200" pageHeight="1920" math="0" shadow="0">
      <root>
        <mxCell id="0" />
        <mxCell id="1" parent="0" />
        <mxCell id="L-kc1rNlSQfX3n5da0zJ-1" value="&lt;b&gt;&lt;u&gt;&lt;font style=&quot;font-size: 20px;&quot;&gt;DESIRED SYSTEM FLOWCHART DIAGRAM&lt;/font&gt;&lt;/u&gt;&lt;/b&gt;" style="text;html=1;align=center;verticalAlign=middle;resizable=0;points=[];autosize=1;strokeColor=none;fillColor=none;" vertex="1" parent="1">
          <mxGeometry x="226" y="53" width="440" height="40" as="geometry" />
        </mxCell>
        <mxCell id="L-kc1rNlSQfX3n5da0zJ-2" value="Start" style="strokeWidth=2;html=1;shape=mxgraph.flowchart.start_1;whiteSpace=wrap;" vertex="1" parent="1">
          <mxGeometry x="550" y="140" width="100" height="50" as="geometry" />
        </mxCell>
        <mxCell id="L-kc1rNlSQfX3n5da0zJ-3" value="login" style="shape=parallelogram;html=1;strokeWidth=2;perimeter=parallelogramPerimeter;whiteSpace=wrap;rounded=1;arcSize=12;size=0.23;" vertex="1" parent="1">
          <mxGeometry x="540" y="250" width="100" height="60" as="geometry" />
        </mxCell>
        <mxCell id="L-kc1rNlSQfX3n5da0zJ-7" style="edgeStyle=orthogonalEdgeStyle;rounded=0;orthogonalLoop=1;jettySize=auto;html=1;exitX=0.5;exitY=1;exitDx=0;exitDy=0;exitPerimeter=0;endArrow=none;startFill=0;" edge="1" parent="1" source="L-kc1rNlSQfX3n5da0zJ-4">
          <mxGeometry relative="1" as="geometry">
            <mxPoint x="590" y="530" as="targetPoint" />
          </mxGeometry>
        </mxCell>
        <mxCell id="L-kc1rNlSQfX3n5da0zJ-4" value="role?" style="strokeWidth=2;html=1;shape=mxgraph.flowchart.decision;whiteSpace=wrap;" vertex="1" parent="1">
          <mxGeometry x="540" y="380" width="100" height="100" as="geometry" />
        </mxCell>
        <mxCell id="L-kc1rNlSQfX3n5da0zJ-5" style="edgeStyle=orthogonalEdgeStyle;rounded=0;orthogonalLoop=1;jettySize=auto;html=1;entryX=0.604;entryY=-0.027;entryDx=0;entryDy=0;entryPerimeter=0;" edge="1" parent="1" source="L-kc1rNlSQfX3n5da0zJ-2" target="L-kc1rNlSQfX3n5da0zJ-3">
          <mxGeometry relative="1" as="geometry" />
        </mxCell>
        <mxCell id="L-kc1rNlSQfX3n5da0zJ-6" style="edgeStyle=orthogonalEdgeStyle;rounded=0;orthogonalLoop=1;jettySize=auto;html=1;entryX=0.5;entryY=0;entryDx=0;entryDy=0;entryPerimeter=0;" edge="1" parent="1" source="L-kc1rNlSQfX3n5da0zJ-3" target="L-kc1rNlSQfX3n5da0zJ-4">
          <mxGeometry relative="1" as="geometry" />
        </mxCell>
        <mxCell id="L-kc1rNlSQfX3n5da0zJ-8" value="" style="endArrow=none;html=1;rounded=0;edgeStyle=orthogonalEdgeStyle;" edge="1" parent="1">
          <mxGeometry width="50" height="50" relative="1" as="geometry">
            <mxPoint x="150" y="600" as="sourcePoint" />
            <mxPoint x="1060" y="530" as="targetPoint" />
            <Array as="points">
              <mxPoint x="150" y="530" />
            </Array>
          </mxGeometry>
        </mxCell>
      </root>
    </mxGraphModel>
  </diagram>
</mxfile>
